<svg width="32" height="32" viewBox="0 0 32 32" fill="none" xmlns="http://www.w3.org/2000/svg">
<path d="M12.6 4H6.60001C6.04772 4 5.60001 4.44772 5.60001 5V15.8C5.60001 16.3523 6.04772 16.8 6.60001 16.8H12.6C13.1523 16.8 13.6 16.3523 13.6 15.8V5C13.6 4.44772 13.1523 4 12.6 4Z" stroke="#98A1A9" stroke-linecap="round" stroke-linejoin="round"/>
<path d="M12.6 21.6H6.60001C6.04772 21.6 5.60001 22.0477 5.60001 22.6V27C5.60001 27.5523 6.04772 28 6.60001 28H12.6C13.1523 28 13.6 27.5523 13.6 27V22.6C13.6 22.0477 13.1523 21.6 12.6 21.6Z" stroke="#98A1A9" stroke-linecap="round" stroke-linejoin="round"/>
<path d="M25.4 4H19.4C18.8477 4 18.4 4.44772 18.4 5V11C18.4 11.5523 18.8477 12 19.4 12H25.4C25.9523 12 26.4 11.5523 26.4 11V5C26.4 4.44772 25.9523 4 25.4 4Z" stroke="#98A1A9" stroke-linecap="round" stroke-linejoin="round"/>
<path d="M25.4 16.8H19.4C18.8477 16.8 18.4 17.2477 18.4 17.8V27C18.4 27.5523 18.8477 28 19.4 28H25.4C25.9523 28 26.4 27.5523 26.4 27V17.8C26.4 17.2477 25.9523 16.8 25.4 16.8Z" stroke="#98A1A9" stroke-linecap="round" stroke-linejoin="round"/>
</svg>
