<svg width="24" height="24" viewBox="0 0 24 24" fill="none" xmlns="http://www.w3.org/2000/svg">
<path d="M21.6 12.3117H15.9909C15.7148 12.3117 15.4909 12.5356 15.4909 12.8117V13.9299C15.4909 14.4822 15.0432 14.9299 14.4909 14.9299H9.50909C8.95681 14.9299 8.50909 14.4822 8.50909 13.9299V12.8117C8.50909 12.5356 8.28523 12.3117 8.00909 12.3117H2.4" stroke="#98A1A9" stroke-width="1.5" stroke-miterlimit="10"/>
<path d="M21.6 12.3117L19.4377 5.8247C19.1654 5.00801 18.4012 4.45715 17.5403 4.45715H6.4597C5.59884 4.45715 4.83456 5.00801 4.56234 5.8247L2.4 12.3117V17.2935C2.4 18.3981 3.29543 19.2935 4.4 19.2935H19.6C20.7046 19.2935 21.6 18.3981 21.6 17.2935V12.3117Z" stroke="#98A1A9" stroke-width="1.5" stroke-miterlimit="10" stroke-linecap="square"/>
</svg>
